<svg width="185" height="63" viewBox="0 0 185 63" fill="none" xmlns="http://www.w3.org/2000/svg">
<path d="M23.6059 52.4145H20.106C19.4949 52.4145 19.1894 52.1234 19.1894 51.5412V30.706C19.1894 30.401 19.0366 30.2485 18.7311 30.2485H13.9812C13.3979 30.2485 13.1063 29.9574 13.1063 29.3752V26.5473C13.1063 25.9651 13.3979 25.6739 13.9812 25.6739H29.7307C30.314 25.6739 30.6056 25.9651 30.6056 26.5473V29.3752C30.6056 29.9574 30.314 30.2485 29.7307 30.2485H24.9808C24.6475 30.2485 24.4809 30.401 24.4809 30.706V51.5412C24.4809 52.1234 24.1892 52.4145 23.6059 52.4145Z" fill="white"/>
<path d="M37.787 52.4145H34.2455C33.6622 52.4145 33.3705 52.1234 33.3705 51.5412V32.0784C33.3705 31.4961 33.6622 31.205 34.2455 31.205H37.787C38.3703 31.205 38.662 31.4961 38.662 32.0784V33.4923H38.8286C39.1342 32.7438 39.6758 32.1754 40.4536 31.7873C41.2313 31.3991 42.0508 31.205 42.9118 31.205H44.4118C44.9673 31.205 45.2451 31.4961 45.2451 32.0784V34.9479C45.2451 35.2806 45.1756 35.5162 45.0368 35.6549C44.9257 35.7658 44.7173 35.8073 44.4118 35.7796H41.5369C39.6203 35.7796 38.662 36.8609 38.662 39.0234V51.5412C38.662 52.1234 38.3703 52.4145 37.787 52.4145Z" fill="white"/>
<path d="M55.3544 52.4145H54.3545C52.1601 52.4145 50.4657 51.8323 49.2713 50.6678C48.0769 49.5034 47.4797 47.826 47.4797 45.6358V37.9837C47.4797 35.7935 48.0769 34.1161 49.2713 32.9517C50.4657 31.7873 52.1601 31.205 54.3545 31.205H63.9791C64.5902 31.205 64.8958 31.4961 64.8958 32.0784V51.5412C64.8958 52.1234 64.5902 52.4145 63.9791 52.4145H60.4792C59.8959 52.4145 59.6043 52.1234 59.6043 51.5412V50.1688H59.4376C59.1321 50.9173 58.5904 51.4857 57.8127 51.8739C57.0349 52.2343 56.2155 52.4145 55.3544 52.4145ZM59.6043 44.6793V36.2371C59.6043 35.9321 59.4376 35.7796 59.1043 35.7796H55.1878C54.2989 35.7796 53.6739 35.9737 53.3128 36.3618C52.9517 36.7223 52.7712 37.3461 52.7712 38.2333V45.3863C52.7712 46.2734 52.9517 46.9111 53.3128 47.2993C53.6739 47.6597 54.2989 47.8399 55.1878 47.8399H56.7294C58.646 47.8399 59.6043 46.7864 59.6043 44.6793Z" fill="white"/>
<path d="M73.8779 52.4145H70.3363C69.753 52.4145 69.4613 52.1234 69.4613 51.5412V32.0784C69.4613 31.4961 69.753 31.205 70.3363 31.205H73.8779C74.4612 31.205 74.7528 31.4961 74.7528 32.0784V33.4507H74.9195C75.5306 31.9536 76.8916 31.205 79.0027 31.205H80.336C84.6969 31.205 86.8774 33.4646 86.8774 37.9837V51.5412C86.8774 52.1234 86.5718 52.4145 85.9608 52.4145H82.4609C81.8776 52.4145 81.5859 52.1234 81.5859 51.5412V38.2333C81.5859 37.3461 81.3915 36.7223 81.0026 36.3618C80.6415 35.9737 80.0165 35.7796 79.1277 35.7796H77.6277C75.7111 35.7796 74.7528 36.8332 74.7528 38.9402V51.5412C74.7528 52.1234 74.4612 52.4145 73.8779 52.4145Z" fill="white"/>
<path d="M99.3118 52.4145H91.3955C90.8399 52.4145 90.5621 52.1234 90.5621 51.5412V48.8796C90.5621 48.5746 90.6177 48.3667 90.7288 48.2558C90.8399 48.1171 91.0621 48.0478 91.3955 48.0478H98.3535C99.7146 48.0478 100.395 47.632 100.395 46.8002V46.5923C100.395 45.9269 99.8257 45.2892 98.6869 44.6793L94.562 42.392C93.1454 41.6711 92.1038 40.8948 91.4371 40.0631C90.7705 39.2314 90.4372 38.1639 90.4372 36.8609C90.4372 34.9202 90.951 33.4923 91.9788 32.5774C93.0065 31.6625 94.6176 31.205 96.8119 31.205H103.77C104.326 31.205 104.603 31.4961 104.603 32.0784V34.7815C104.603 35.0865 104.548 35.3083 104.437 35.4469C104.326 35.5578 104.103 35.6133 103.77 35.6133H97.9786C96.6175 35.6133 95.937 35.9598 95.937 36.653V36.8609C95.937 37.4708 96.5342 38.0946 97.7286 38.7323L101.937 41.2275C103.381 42.0038 104.395 42.8078 104.978 43.6396C105.562 44.4436 105.853 45.511 105.853 46.8418C105.853 50.5569 103.673 52.4145 99.3118 52.4145Z" fill="white"/>
<path d="M122.248 51.0005V51.957C122.248 52.262 122.095 52.4145 121.789 52.4145H115.789C113.984 52.4145 112.553 51.8877 111.498 50.8342C110.47 49.7806 109.956 48.3389 109.956 46.5091V37.1104C109.956 35.2806 110.47 33.8389 111.498 32.7853C112.553 31.7318 113.984 31.205 115.789 31.205H121.789C122.095 31.205 122.248 31.3575 122.248 31.6625V32.6606C122.248 32.9378 122.095 33.0765 121.789 33.0765H115.956C114.678 33.0765 113.706 33.4369 113.04 34.1577C112.373 34.8786 112.04 35.8905 112.04 37.1936V46.4259C112.04 47.729 112.373 48.741 113.04 49.4618C113.706 50.1826 114.678 50.5431 115.956 50.5431H121.789C122.095 50.5431 122.248 50.6955 122.248 51.0005Z" fill="white"/>
<path d="M128.395 52.4145H127.187C126.909 52.4145 126.771 52.2481 126.771 51.9154V31.7041C126.771 31.3714 126.909 31.205 127.187 31.205H128.395C128.701 31.205 128.854 31.3714 128.854 31.7041V33.4507H129.02C129.326 32.8685 129.868 32.3556 130.645 31.912C131.423 31.4407 132.381 31.205 133.52 31.205H135.145C135.451 31.205 135.604 31.3575 135.604 31.6625V32.6606C135.604 32.9656 135.451 33.1042 135.145 33.0765H133.187C131.826 33.0765 130.756 33.4923 129.979 34.3241C129.229 35.1558 128.854 36.2787 128.854 37.6926V51.9154C128.854 52.2481 128.701 52.4145 128.395 52.4145Z" fill="white"/>
<path d="M147.915 52.4145H145.248C143.443 52.4145 142.012 51.8877 140.957 50.8342C139.929 49.7806 139.415 48.3389 139.415 46.5091V37.1104C139.415 35.2806 139.929 33.8389 140.957 32.7853C142.012 31.7318 143.443 31.205 145.248 31.205H154.081C154.359 31.205 154.498 31.3714 154.498 31.7041V51.9154C154.498 52.2481 154.359 52.4145 154.081 52.4145H152.873C152.567 52.4145 152.414 52.2481 152.414 51.9154V50.252H152.248C151.526 51.6936 150.081 52.4145 147.915 52.4145ZM152.414 46.4675V33.4507C152.414 33.2012 152.276 33.0765 151.998 33.0765H145.415C144.137 33.0765 143.165 33.4369 142.498 34.1577C141.831 34.8786 141.498 35.8905 141.498 37.1936V46.4259C141.498 47.729 141.831 48.741 142.498 49.4618C143.165 50.1826 144.137 50.5431 145.415 50.5431H148.123C149.456 50.5431 150.498 50.1965 151.248 49.5034C152.026 48.7825 152.414 47.7706 152.414 46.4675Z" fill="white"/>
<path d="M165.12 31.205H168.912C169.245 31.205 169.412 31.3575 169.412 31.6625V32.619C169.412 32.924 169.245 33.0765 168.912 33.0765H165.12C164.87 33.0765 164.745 33.2012 164.745 33.4507V51.9154C164.745 52.2481 164.593 52.4145 164.287 52.4145H163.079C162.773 52.4145 162.62 52.2481 162.62 51.9154V33.4507C162.62 33.2012 162.495 33.0765 162.245 33.0765H159.579C159.273 33.0765 159.121 32.924 159.121 32.619V31.6625C159.121 31.3575 159.273 31.205 159.579 31.205H162.245C162.495 31.205 162.62 31.0803 162.62 30.8307V29.0009C162.62 25.1194 164.384 23.1787 167.912 23.1787H168.912C169.245 23.1787 169.412 23.3312 169.412 23.6362V24.5927C169.412 24.8976 169.245 25.0501 168.912 25.0501H168.12C166.87 25.0501 165.995 25.3828 165.495 26.0482C164.995 26.7136 164.745 27.7256 164.745 29.0841V30.8307C164.745 31.0803 164.87 31.205 165.12 31.205Z" fill="white"/>
<path d="M174.276 33.0765H171.734C171.429 33.0765 171.276 32.9378 171.276 32.6606V31.6625C171.276 31.3575 171.429 31.205 171.734 31.205H174.276C174.526 31.205 174.651 31.0803 174.651 30.8307V27.4622C174.651 27.1295 174.803 26.9631 175.109 26.9631H176.317C176.623 26.9631 176.776 27.1295 176.776 27.4622V30.8307C176.776 31.0803 176.901 31.205 177.151 31.205H182.109C182.414 31.205 182.567 31.3575 182.567 31.6625V32.6606C182.567 32.9378 182.414 33.0765 182.109 33.0765H177.151C176.901 33.0765 176.776 33.2012 176.776 33.4507V46.5507C176.776 47.826 177.137 48.8103 177.859 49.5034C178.581 50.1965 179.595 50.5431 180.9 50.5431H182.525C182.831 50.5431 182.984 50.6955 182.984 51.0005V51.957C182.984 52.262 182.831 52.4145 182.525 52.4145H180.734C178.9 52.4145 177.428 51.9016 176.317 50.8758C175.206 49.8499 174.651 48.436 174.651 46.6339V33.4507C174.651 33.2012 174.526 33.0765 174.276 33.0765Z" fill="white"/>
<g clip-path="url(#clip0_1_2238)">
<path d="M149.087 21.0357C148.739 20.3886 148.184 19.8902 147.504 19.6224C143.103 17.8892 136.379 17.852 136.379 17.852C133.028 8.81397 125.276 8.09986 116.193 8.18912V4.8194L114.477 -0.00830078H111.836L113.552 4.73758V29.7315H116.193H137.999C137.999 27.3437 139.922 25.4097 142.296 25.4097C144.671 25.4097 146.594 27.3437 146.594 29.7315H153.739L149.087 21.0357ZM114.714 28.8463H114.27V4.67807L112.983 1.08519L114.714 4.44003V28.8463ZM126.992 20.1505C122.303 18.9752 122.436 14.6533 122.436 14.6533H129.818C126.645 10.1753 116.193 9.84051 116.193 9.84051C132.385 8.5313 134.367 16.9519 135.721 19.3769C143.717 19.4959 146.971 20.82 146.971 20.82C140.98 19.8604 126.992 20.1505 126.992 20.1505Z" fill="#FF6600"/>
<path d="M110.771 29.7316H48.8965L107.864 27.5149V11.0903L48.8965 9H110.771V29.7316Z" fill="#FF6600"/>
<path d="M142.304 26.2427C140.388 26.2427 138.835 27.8048 138.835 29.7314H145.773C145.773 27.8048 144.219 26.2427 142.304 26.2427Z" fill="#FF6600"/>
</g>
<defs>
<clipPath id="clip0_1_2238">
<rect width="104.85" height="29.7398" fill="white" transform="translate(48.8965 -0.00830078)"/>
</clipPath>
</defs>
</svg>
