<svg width="87" height="25" viewBox="0 0 87 25" fill="none" xmlns="http://www.w3.org/2000/svg">
<g clip-path="url(#clip0_29_5267)">
<path d="M82.4927 17.4813C82.2071 16.949 81.7513 16.539 81.1922 16.3187C77.5761 14.893 72.0518 14.8624 72.0518 14.8624C69.2987 7.42793 62.9296 6.84051 55.4666 6.91394V4.14207L54.0566 0.170898H51.887L53.2969 4.07476V24.6343H55.4666H73.3827C73.3827 22.6701 74.9629 21.0792 76.9137 21.0792C78.8645 21.0792 80.4447 22.6701 80.4447 24.6343H86.3154L82.4927 17.4813ZM54.2511 23.9062H53.8864V4.02581L52.829 1.07038L54.2511 3.83001V23.9062ZM64.3396 16.7532C60.4865 15.7864 60.5959 12.2313 60.5959 12.2313H66.6611C64.0539 8.54769 55.4666 8.27234 55.4666 8.27234C68.77 7.19541 70.3987 14.122 71.5109 16.1168C78.0806 16.2147 80.7546 17.3039 80.7546 17.3039C75.8319 16.5145 64.3396 16.7532 64.3396 16.7532Z" fill="#FF6600"/>
<path d="M51.0118 24.6345H0.174377L48.6234 22.811V9.30047L0.174377 7.58105H51.0118V24.6345Z" fill="#FF6600"/>
<path d="M76.9198 21.7646C75.3457 21.7646 74.0695 23.0496 74.0695 24.6344H79.7701C79.7701 23.0496 78.4938 21.7646 76.9198 21.7646Z" fill="#FF6600"/>
</g>
<defs>
<clipPath id="clip0_29_5267">
<rect width="86.1471" height="24.4634" fill="white" transform="translate(0.174377 0.170898)"/>
</clipPath>
</defs>
</svg>
